<svg width="133" height="30" viewBox="0 0 133 30" fill="none" xmlns="http://www.w3.org/2000/svg">
<rect width="10.2555" height="3.30734" rx="1.65367" transform="matrix(0.699872 -0.714269 0.699872 0.714269 0.166443 11.0136)" fill="#B475FF" fill-opacity="0.65"/>
<rect width="3.30734" height="3.30734" rx="1.65367" transform="matrix(0.699872 -0.714269 0.699872 0.714269 9.22314 1.74994)" fill="#B475FF" fill-opacity="0.65"/>
<rect width="3.30734" height="3.30734" rx="1.65367" transform="matrix(0.699872 -0.714269 0.699872 0.714269 0.388489 19.2372)" fill="#B475FF" fill-opacity="0.4"/>
<rect width="3.30734" height="3.30734" rx="1.65367" transform="matrix(0.699872 -0.714269 0.699872 0.714269 18.3038 26.474)" fill="#B475FF"/>
<rect width="6.99117" height="3.30734" rx="1.65367" transform="matrix(0.699872 -0.714269 0.699872 0.714269 22.7774 21.7493)" fill="#B475FF"/>
<rect width="10.0433" height="3.30734" rx="1.65367" transform="matrix(0.699872 -0.714269 0.699872 0.714269 3.63928 24.5023)" fill="#B475FF" fill-opacity="0.6"/>
<rect width="20.9712" height="3.30734" rx="1.65367" transform="matrix(0.699872 -0.714269 0.699872 0.714269 4.9126 14.652)" fill="#B475FF" fill-opacity="0.4"/>
<rect width="17.0147" height="3.30734" rx="1.65367" transform="matrix(0.699872 -0.714269 0.699872 0.714269 12.8488 15.1661)" fill="#B475FF" fill-opacity="0.6"/>
<rect width="27.0389" height="3.30734" rx="1.65367" transform="matrix(0.699872 -0.714269 0.699872 0.714269 8.84143 27.5446)" fill="#B475FF" fill-opacity="0.8"/>
<path d="M42.0029 15.0668C42.0029 17.6478 42.6749 19.6205 44.0188 20.9847C45.3701 22.349 47.1837 23.0311 49.4598 23.0311C50.9339 23.0311 52.1803 22.7951 53.1991 22.3232C54.2252 21.8439 55.0164 21.3203 55.5728 20.7524V14.1487H49.2322V16.7924H52.8523V19.4361C52.3682 19.7532 51.8624 19.9818 51.3349 20.1219C50.8146 20.2547 50.1896 20.321 49.4598 20.321C48.0363 20.321 46.9091 19.897 46.0782 19.049C45.2544 18.2009 44.8426 16.9399 44.8426 15.2659V14.027C44.8426 12.3752 45.24 11.1215 46.0348 10.2661C46.8369 9.41069 47.8232 8.98298 48.9937 8.98298C50.2438 8.98298 51.1651 9.22264 51.7576 9.70198C52.3501 10.1813 52.6825 10.7565 52.7547 11.4276L52.7656 11.5603H55.5619V11.4165C55.5258 9.91952 54.9405 8.688 53.8061 7.72196C52.6716 6.74855 51.082 6.26184 49.0371 6.26184C47.0356 6.26184 45.3628 6.94397 44.0188 8.30822C42.6749 9.67248 42.0029 11.6451 42.0029 14.2261V15.0668Z" fill="#141934"/>
<path d="M57.0689 17.0468C57.0689 18.8314 57.6072 20.2768 58.6839 21.383C59.7605 22.4891 61.2418 23.0422 63.1277 23.0422C64.291 23.0422 65.3062 22.8136 66.1733 22.3564C67.0476 21.8992 67.6763 21.324 68.0592 20.6308L66.195 19.1706C65.8554 19.5246 65.4255 19.838 64.9052 20.1109C64.385 20.3837 63.7816 20.5202 63.0952 20.5202C61.9969 20.5202 61.1551 20.2104 60.5698 19.591C59.9845 18.9642 59.6919 18.1456 59.6919 17.1353V16.5933C59.6919 15.5757 59.9628 14.7497 60.5047 14.1155C61.0467 13.4813 61.809 13.1642 62.7917 13.1642C63.7888 13.1642 64.5006 13.3855 64.9269 13.8279C65.3604 14.2704 65.5772 14.8345 65.5772 15.5203V15.5646H58.8031V17.7548H68.2435V16.4938C68.2435 14.7018 67.7594 13.2896 66.7911 12.2572C65.8229 11.2248 64.5006 10.7086 62.8242 10.7086C61.1478 10.7086 59.7677 11.2617 58.6839 12.3678C57.6072 13.4666 57.0689 14.9083 57.0689 16.6929V17.0468Z" fill="#141934"/>
<path d="M69.2519 17.0468C69.2519 18.8462 69.8083 20.2952 70.921 21.394C72.0338 22.4854 73.4717 23.0311 75.2348 23.0311C77.0051 23.0311 78.4466 22.4854 79.5594 21.394C80.6721 20.2952 81.2285 18.8462 81.2285 17.0468V16.6929C81.2285 14.8935 80.6721 13.4482 79.5594 12.3567C78.4466 11.258 77.0051 10.7086 75.2348 10.7086C73.4717 10.7086 72.0338 11.258 70.921 12.3567C69.8083 13.4482 69.2519 14.8935 69.2519 16.6929V17.0468ZM71.9941 16.5933C71.9941 15.5683 72.2795 14.7718 72.8503 14.204C73.4284 13.6288 74.2232 13.3412 75.2348 13.3412C76.2536 13.3412 77.0485 13.6288 77.6193 14.204C78.1901 14.7718 78.4755 15.5683 78.4755 16.5933V17.1464C78.4755 18.1714 78.1901 18.9715 77.6193 19.5467C77.0557 20.1219 76.2609 20.4095 75.2348 20.4095C74.216 20.4095 73.4211 20.1219 72.8503 19.5467C72.2795 18.9715 71.9941 18.1714 71.9941 17.1464V16.5933Z" fill="#141934"/>
<path d="M83.0282 22.6993H85.7161V15.2659C85.9907 14.7202 86.3773 14.2851 86.8759 13.9607C87.3744 13.6288 87.92 13.4629 88.5125 13.4629C89.2278 13.4629 89.7878 13.6251 90.1925 13.9496C90.5971 14.2741 90.7994 14.8419 90.7994 15.6531V22.6993H93.4874V15.7637C93.4874 13.8759 93.1008 12.578 92.3277 11.87C91.5617 11.1621 90.5754 10.8081 89.3687 10.8081C88.5739 10.8081 87.8477 10.9667 87.1902 11.2838C86.5399 11.5935 86.0341 12.0102 85.6728 12.5337H85.6403L85.5644 11.0404H83.0282V22.6993Z" fill="#141934"/>
<path d="M95.1786 17.0468C95.1786 18.8462 95.735 20.2952 96.8478 21.394C97.9605 22.4854 99.3985 23.0311 101.162 23.0311C102.932 23.0311 104.373 22.4854 105.486 21.394C106.599 20.2952 107.155 18.8462 107.155 17.0468V16.6929C107.155 14.8935 106.599 13.4482 105.486 12.3567C104.373 11.258 102.932 10.7086 101.162 10.7086C99.3985 10.7086 97.9605 11.258 96.8478 12.3567C95.735 13.4482 95.1786 14.8935 95.1786 16.6929V17.0468ZM97.9208 16.5933C97.9208 15.5683 98.2062 14.7718 98.777 14.204C99.3551 13.6288 100.15 13.3412 101.162 13.3412C102.18 13.3412 102.975 13.6288 103.546 14.204C104.117 14.7718 104.402 15.5683 104.402 16.5933V17.1464C104.402 18.1714 104.117 18.9715 103.546 19.5467C102.982 20.1219 102.188 20.4095 101.162 20.4095C100.143 20.4095 99.3479 20.1219 98.777 19.5467C98.2062 18.9715 97.9208 18.1714 97.9208 17.1464V16.5933Z" fill="#141934"/>
<path d="M108.326 17.0468C108.326 18.7651 108.785 20.1736 109.703 21.2723C110.62 22.3711 111.896 22.9205 113.529 22.9205C114.338 22.9205 115.057 22.762 115.686 22.4449C116.314 22.1278 116.773 21.7296 117.062 21.2502H117.095L117.171 22.6993H119.707V6.54944H117.03V12.3346C116.69 11.8848 116.22 11.5198 115.621 11.2395C115.028 10.9593 114.327 10.8192 113.518 10.8192C111.972 10.8192 110.718 11.3686 109.757 12.4674C108.803 13.5661 108.326 14.9746 108.326 16.6929V17.0468ZM111.068 17.1353V16.6044C111.068 15.6457 111.332 14.8788 111.86 14.3036C112.394 13.7284 113.167 13.4408 114.179 13.4408C114.902 13.4408 115.501 13.6067 115.978 13.9385C116.455 14.263 116.806 14.6834 117.03 15.1996V18.5401C116.806 19.0121 116.444 19.4251 115.946 19.779C115.447 20.1256 114.855 20.2989 114.168 20.2989C113.157 20.2989 112.387 20.0113 111.86 19.4361C111.332 18.8609 111.068 18.094 111.068 17.1353Z" fill="#141934"/>
<path d="M121.506 17.0468C121.506 18.8314 122.045 20.2768 123.121 21.383C124.198 22.4891 125.679 23.0422 127.565 23.0422C128.729 23.0422 129.744 22.8136 130.611 22.3564C131.485 21.8992 132.114 21.324 132.497 20.6308L130.632 19.1706C130.293 19.5246 129.863 19.838 129.343 20.1109C128.822 20.3837 128.219 20.5202 127.533 20.5202C126.434 20.5202 125.593 20.2104 125.007 19.591C124.422 18.9642 124.129 18.1456 124.129 17.1353V16.5933C124.129 15.5757 124.4 14.7497 124.942 14.1155C125.484 13.4813 126.246 13.1642 127.229 13.1642C128.226 13.1642 128.938 13.3855 129.364 13.8279C129.798 14.2704 130.015 14.8345 130.015 15.5203V15.5646H123.241V17.7548H132.681V16.4938C132.681 14.7018 132.197 13.2896 131.229 12.2572C130.26 11.2248 128.938 10.7086 127.262 10.7086C125.585 10.7086 124.205 11.2617 123.121 12.3678C122.045 13.4666 121.506 14.9083 121.506 16.6929V17.0468Z" fill="#141934"/>
</svg>
