<svg width="133" height="30" viewBox="0 0 133 30" fill="none" xmlns="http://www.w3.org/2000/svg">
<rect width="10.2547" height="3.30709" rx="1.65354" transform="matrix(0.699916 -0.714225 0.699916 0.714225 -0.261169 11.012)" fill="#B475FF" fill-opacity="0.65"/>
<rect width="3.30709" height="3.30709" rx="1.65354" transform="matrix(0.699916 -0.714225 0.699916 0.714225 8.79541 1.74969)" fill="#B475FF" fill-opacity="0.65"/>
<rect width="3.30709" height="3.30709" rx="1.65354" transform="matrix(0.699916 -0.714225 0.699916 0.714225 -0.0391235 19.2346)" fill="#B475FF" fill-opacity="0.4"/>
<rect width="3.30709" height="3.30709" rx="1.65354" transform="matrix(0.699916 -0.714225 0.699916 0.714225 17.876 26.4703)" fill="#B475FF"/>
<rect width="6.99062" height="3.30709" rx="1.65354" transform="matrix(0.699916 -0.714225 0.699916 0.714225 22.3495 21.7463)" fill="#B475FF"/>
<rect width="10.0425" height="3.30709" rx="1.65354" transform="matrix(0.699916 -0.714225 0.699916 0.714225 3.21161 24.4989)" fill="#B475FF" fill-opacity="0.6"/>
<rect width="20.9695" height="3.30709" rx="1.65354" transform="matrix(0.699916 -0.714225 0.699916 0.714225 4.48492 14.65)" fill="#B475FF" fill-opacity="0.4"/>
<rect width="17.0133" height="3.30709" rx="1.65354" transform="matrix(0.699916 -0.714225 0.699916 0.714225 12.421 15.1639)" fill="#B475FF" fill-opacity="0.6"/>
<rect width="27.0368" height="3.30709" rx="1.65354" transform="matrix(0.699916 -0.714225 0.699916 0.714225 8.4137 27.5407)" fill="#B475FF" fill-opacity="0.8"/>
<path d="M41.5746 15.0647C41.5746 17.6454 42.2466 19.6178 43.5906 20.9818C44.9418 22.3459 46.7554 23.0279 49.0315 23.0279C50.5055 23.0279 51.7519 22.792 52.7707 22.3201C53.7968 21.8408 54.588 21.3173 55.1443 20.7496V14.1468H48.8039V16.7901H52.4239V19.4334C51.9398 19.7505 51.434 19.9791 50.9065 20.1192C50.3863 20.2519 49.7613 20.3182 49.0315 20.3182C47.608 20.3182 46.4808 19.8943 45.6499 19.0463C44.8262 18.1984 44.4143 16.9376 44.4143 15.2638V14.0251C44.4143 12.3735 44.8117 11.12 45.6065 10.2647C46.4086 9.4094 47.3949 8.98174 48.5654 8.98174C49.8154 8.98174 50.7367 9.22138 51.3292 9.70064C51.9217 10.1799 52.2541 10.755 52.3263 11.426L52.3372 11.5587H55.1335V11.4149C55.0974 9.91816 54.5121 8.68681 53.3777 7.72091C52.2433 6.74763 50.6536 6.26099 48.6088 6.26099C46.6073 6.26099 44.9346 6.94302 43.5906 8.30709C42.2466 9.67115 41.5746 11.6435 41.5746 14.2242V15.0647Z" fill="white"/>
<path d="M56.6405 17.0445C56.6405 18.8288 57.1788 20.274 58.2554 21.38C59.332 22.486 60.8133 23.039 62.6991 23.039C63.8625 23.039 64.8777 22.8104 65.7447 22.3533C66.619 21.8961 67.2477 21.321 67.6306 20.6279L65.7664 19.168C65.4268 19.5219 64.9969 19.8353 64.4766 20.1081C63.9564 20.3809 63.3531 20.5173 62.6666 20.5173C61.5683 20.5173 60.7265 20.2076 60.1413 19.5883C59.556 18.9615 59.2634 18.1431 59.2634 17.133V16.591C59.2634 15.5735 59.5343 14.7477 60.0762 14.1136C60.6182 13.4795 61.3805 13.1624 62.3631 13.1624C63.3603 13.1624 64.072 13.3836 64.4983 13.826C64.9318 14.2684 65.1486 14.8325 65.1486 15.5182V15.5624H58.3746V17.7523H67.8149V16.4915C67.8149 14.6998 67.3308 13.2878 66.3625 12.2555C65.3943 11.2232 64.072 10.7071 62.3957 10.7071C60.7193 10.7071 59.3392 11.2601 58.2554 12.3661C57.1788 13.4647 56.6405 14.9062 56.6405 16.6906V17.0445Z" fill="white"/>
<path d="M68.8233 17.0445C68.8233 18.8436 69.3796 20.2924 70.4924 21.3911C71.6051 22.4823 73.043 23.0279 74.8061 23.0279C76.5763 23.0279 78.0179 22.4823 79.1306 21.3911C80.2433 20.2924 80.7997 18.8436 80.7997 17.0445V16.6906C80.7997 14.8915 80.2433 13.4463 79.1306 12.355C78.0179 11.2564 76.5763 10.7071 74.8061 10.7071C73.043 10.7071 71.6051 11.2564 70.4924 12.355C69.3796 13.4463 68.8233 14.8915 68.8233 16.6906V17.0445ZM71.5654 16.591C71.5654 15.5661 71.8508 14.7698 72.4216 14.2021C72.9997 13.6269 73.7945 13.3394 74.8061 13.3394C75.8249 13.3394 76.6197 13.6269 77.1905 14.2021C77.7613 14.7698 78.0468 15.5661 78.0468 16.591V17.144C78.0468 18.1689 77.7613 18.9689 77.1905 19.544C76.6269 20.1192 75.8321 20.4067 74.8061 20.4067C73.7873 20.4067 72.9924 20.1192 72.4216 19.544C71.8508 18.9689 71.5654 18.1689 71.5654 17.144V16.591Z" fill="white"/>
<path d="M82.5993 22.6961H85.2872V15.2638C85.5618 14.7182 85.9484 14.2832 86.447 13.9587C86.9455 13.6269 87.4911 13.461 88.0836 13.461C88.7989 13.461 89.3589 13.6233 89.7635 13.9477C90.1681 14.2721 90.3705 14.8399 90.3705 15.6509V22.6961H93.0584V15.7615C93.0584 13.8739 92.6718 12.5762 91.8987 11.8684C91.1328 11.1606 90.1465 10.8066 88.9398 10.8066C88.145 10.8066 87.4188 10.9652 86.7613 11.2822C86.111 11.5919 85.6052 12.0085 85.2439 12.532H85.2114L85.1355 11.0389H82.5993V22.6961Z" fill="white"/>
<path d="M94.7496 17.0445C94.7496 18.8436 95.306 20.2924 96.4187 21.3911C97.5315 22.4823 98.9694 23.0279 100.732 23.0279C102.503 23.0279 103.944 22.4823 105.057 21.3911C106.17 20.2924 106.726 18.8436 106.726 17.0445V16.6906C106.726 14.8915 106.17 13.4463 105.057 12.355C103.944 11.2564 102.503 10.7071 100.732 10.7071C98.9694 10.7071 97.5315 11.2564 96.4187 12.355C95.306 13.4463 94.7496 14.8915 94.7496 16.6906V17.0445ZM97.4917 16.591C97.4917 15.5661 97.7771 14.7698 98.348 14.2021C98.926 13.6269 99.7208 13.3394 100.732 13.3394C101.751 13.3394 102.546 13.6269 103.117 14.2021C103.688 14.7698 103.973 15.5661 103.973 16.591V17.144C103.973 18.1689 103.688 18.9689 103.117 19.544C102.553 20.1192 101.758 20.4067 100.732 20.4067C99.7136 20.4067 98.9188 20.1192 98.348 19.544C97.7771 18.9689 97.4917 18.1689 97.4917 17.144V16.591Z" fill="white"/>
<path d="M107.897 17.0445C107.897 18.7625 108.356 20.1708 109.274 21.2694C110.191 22.368 111.466 22.9173 113.099 22.9173C113.909 22.9173 114.628 22.7588 115.256 22.4418C115.885 22.1247 116.344 21.7265 116.633 21.2473H116.665L116.741 22.6961H119.277V6.54855H116.6V12.3329C116.261 11.8832 115.791 11.5182 115.191 11.238C114.599 10.9578 113.898 10.8177 113.089 10.8177C111.542 10.8177 110.289 11.367 109.328 12.4656C108.374 13.5643 107.897 14.9726 107.897 16.6906V17.0445ZM110.639 17.133V16.6021C110.639 15.6435 110.903 14.8767 111.43 14.3016C111.965 13.7265 112.738 13.4389 113.75 13.4389C114.472 13.4389 115.072 13.6048 115.549 13.9366C116.026 14.261 116.376 14.6813 116.6 15.1975V18.5376C116.376 19.0095 116.015 19.4224 115.516 19.7763C115.018 20.1228 114.425 20.2961 113.739 20.2961C112.727 20.2961 111.958 20.0086 111.43 19.4334C110.903 18.8583 110.639 18.0915 110.639 17.133Z" fill="white"/>
<path d="M121.077 17.0445C121.077 18.8288 121.615 20.274 122.692 21.38C123.769 22.486 125.25 23.039 127.136 23.039C128.299 23.039 129.314 22.8104 130.181 22.3533C131.056 21.8961 131.684 21.321 132.067 20.6279L130.203 19.168C129.863 19.5219 129.433 19.8353 128.913 20.1081C128.393 20.3809 127.79 20.5173 127.103 20.5173C126.005 20.5173 125.163 20.2076 124.578 19.5883C123.993 18.9615 123.7 18.1431 123.7 17.133V16.591C123.7 15.5735 123.971 14.7477 124.513 14.1136C125.055 13.4795 125.817 13.1624 126.8 13.1624C127.797 13.1624 128.509 13.3836 128.935 13.826C129.368 14.2684 129.585 14.8325 129.585 15.5182V15.5624H122.811V17.7523H132.251V16.4915C132.251 14.6998 131.767 13.2878 130.799 12.2555C129.831 11.2232 128.509 10.7071 126.832 10.7071C125.156 10.7071 123.776 11.2601 122.692 12.3661C121.615 13.4647 121.077 14.9062 121.077 16.6906V17.0445Z" fill="white"/>
</svg>
